<svg width="413" height="413" viewBox="0 0 413 413" fill="none" xmlns="http://www.w3.org/2000/svg">
<path d="M0 316.067H413V315.862H0V316.067Z" fill="#ECECEC"/>
<path d="M353.711 329.363H371.618V329.157H353.711V329.363Z" fill="#ECECEC"/>
<path d="M256.521 325.077H284.695V324.871H256.521V325.077Z" fill="#ECECEC"/>
<path d="M327.58 321.692H364.358V321.486H327.58V321.692Z" fill="#ECECEC"/>
<path d="M133.71 325.857H142.91V325.65H133.71V325.857Z" fill="#ECECEC"/>
<path d="M94.6465 325.857H126.356V325.65H94.6465V325.857Z" fill="#ECECEC"/>
<path d="M54.7695 322.369H77.6464V322.162H54.7695V322.369Z" fill="#ECECEC"/>
<mask id="mask0_179700_3106" style="mask-type:luminance" maskUnits="userSpaceOnUse" x="0" y="0" width="413" height="413">
<path d="M0 6.10352e-05H413V413H0V6.10352e-05Z" fill="white"/>
</mask>
<g mask="url(#mask0_179700_3106)">
<path d="M36.2739 45.5969C33.7876 45.5969 31.7656 47.6198 31.7656 50.1052V274.308C31.7656 276.793 33.7876 278.816 36.2739 278.816H195.774C198.258 278.816 200.281 276.793 200.281 274.308V50.1052C200.281 47.6198 198.258 45.5969 195.774 45.5969H36.2739ZM195.774 279.023H36.2739C33.6745 279.023 31.5591 276.907 31.5591 274.308V50.1052C31.5591 47.5066 33.6745 45.3904 36.2739 45.3904H195.774C198.372 45.3904 200.488 47.5066 200.488 50.1052V274.308C200.488 276.907 198.372 279.023 195.774 279.023Z" fill="#ECECEC"/>
<path d="M214.935 45.5969C212.45 45.5969 210.428 47.6198 210.428 50.1052V274.308C210.428 276.793 212.45 278.816 214.935 278.816H374.435C376.92 278.816 378.943 276.793 378.943 274.308V50.1052C378.943 47.6198 376.92 45.5969 374.435 45.5969H214.935ZM374.435 279.023H214.935C212.337 279.023 210.221 276.907 210.221 274.308V50.1052C210.221 47.5066 212.337 45.3904 214.935 45.3904H374.435C377.034 45.3904 379.15 47.5066 379.15 50.1052V274.308C379.15 276.907 377.034 279.023 374.435 279.023Z" fill="#ECECEC"/>
<path d="M105.13 201.089C81.3596 200.275 62.7457 180.34 63.5601 156.568C64.3754 132.769 84.31 114.157 108.081 114.97C131.852 115.785 150.465 135.718 149.65 159.518C148.836 183.289 128.901 201.903 105.13 201.089ZM178.476 165.925L178.848 155.071L172.184 152.894C171.91 149.185 171.29 145.523 170.407 141.994L176.055 137.829L172.219 127.634L165.232 128.196C163.567 124.9 161.61 121.764 159.417 118.821L163.036 112.781L155.595 104.843L149.348 108.041C146.535 105.65 143.57 103.484 140.395 101.569L141.407 94.6357L131.497 90.1382L126.956 95.4593C123.497 94.3376 119.912 93.4975 116.204 92.9408L114.516 86.1445L103.633 85.7719L101.483 92.4361C97.7458 92.7376 94.113 93.3307 90.5843 94.2128L86.3899 88.5927L76.1954 92.4014L76.7588 99.3894C73.4614 101.082 70.3259 103.039 67.3836 105.232L61.3712 101.614L53.4044 109.025L56.6019 115.299C54.2123 118.084 52.0457 121.079 50.1582 124.254L43.2265 123.215L38.7008 133.122L44.0508 137.665C42.9291 141.124 42.0593 144.736 41.5315 148.417L34.7054 150.132L34.3337 160.987L41.026 163.166C41.2994 166.902 41.9214 170.538 42.8035 174.065L37.1562 178.229L40.9929 188.426L47.9793 187.861C49.6445 191.159 51.6013 194.294 53.7943 197.237L50.1748 203.277L57.6162 211.217L63.8616 208.018C66.6469 210.408 69.6411 212.575 72.8154 214.491L71.7747 221.421L81.685 225.919L86.2544 220.598C89.7137 221.722 93.2977 222.561 97.0065 223.118L98.694 229.913L109.577 230.287L111.727 223.621C115.464 223.32 119.098 222.728 122.626 221.845L126.792 227.465L136.987 223.655L136.451 216.671C139.75 214.977 142.857 213.019 145.827 210.826L151.84 214.445L159.806 207.034L156.609 200.76C158.999 197.974 161.166 194.98 163.053 191.805L169.984 192.845L174.51 182.935L169.16 178.394C170.282 174.935 171.151 171.351 171.679 167.643L178.476 165.925Z" fill="#ECECEC"/>
<path d="M344.724 114.229C342.71 112.072 342.826 108.691 344.982 106.676C347.142 104.66 350.524 104.776 352.538 106.933C354.552 109.09 354.436 112.471 352.277 114.488C350.119 116.502 346.738 116.386 344.724 114.229ZM364.231 130.031L366.968 127.475L365.874 125.32C366.712 124.349 367.454 123.304 368.099 122.229L370.492 122.59L372.042 119.168L370.201 117.603C370.599 116.392 370.887 115.15 371.069 113.898L373.425 113.308L373.546 109.557L371.243 108.814C371.14 107.545 370.945 106.295 370.638 105.053L372.576 103.609L371.256 100.096L368.85 100.286C368.281 99.1695 367.611 98.09 366.843 97.05L368.089 94.9809L365.526 92.2361L363.377 93.338C362.391 92.4996 361.361 91.7587 360.286 91.1136L360.633 88.7198L357.219 87.162L355.652 89.004C354.435 88.6124 353.194 88.3258 351.941 88.1424L351.357 85.7941L347.607 85.6587L346.857 87.9682C345.595 88.0648 344.337 88.2663 343.102 88.5802L341.666 86.6375L338.146 87.95L338.343 90.3611C337.226 90.9318 336.133 91.6001 335.107 92.3691L333.024 91.1227L330.287 93.6791L331.387 95.8424C330.543 96.8204 329.808 97.8587 329.163 98.9333L326.771 98.5715L325.219 101.994L327.061 103.56C326.663 104.77 326.375 106.012 326.193 107.264L323.838 107.854L323.715 111.605L326.019 112.348C326.115 113.61 326.316 114.868 326.624 116.109L324.68 117.546L326 121.059L328.411 120.876C328.981 121.993 329.65 123.072 330.419 124.111L329.174 126.181L331.736 128.925L333.886 127.824C334.87 128.662 335.9 129.404 336.977 130.048L336.622 132.434L340.036 133.992L341.609 132.158C342.826 132.55 344.061 132.83 345.321 133.019L345.904 135.368L349.654 135.503L350.404 133.193C351.666 133.097 352.925 132.896 354.159 132.581L355.596 134.525L359.116 133.212L358.919 130.8C360.035 130.23 361.122 129.568 362.155 128.793L364.231 130.031Z" fill="#ECECEC"/>
<path d="M207.77 269.049C196.491 268.663 187.681 259.194 188.066 247.948C188.453 236.67 197.889 227.859 209.167 228.246C220.446 228.632 229.257 238.068 228.871 249.346C228.486 260.593 219.048 269.436 207.77 269.049ZM264.311 241.469L255.769 235.571C255.767 235.565 255.767 235.557 255.764 235.55C254.92 232.447 253.754 229.46 252.329 226.653L254.517 218.064L242.128 204.795L233.406 206.392C230.706 204.78 227.807 203.414 224.771 202.359C224.765 202.357 224.756 202.356 224.75 202.352L219.447 193.423L201.305 192.801L195.405 201.343C195.395 201.346 195.382 201.349 195.371 201.352C192.271 202.196 189.288 203.36 186.484 204.782L177.899 202.594L164.63 214.985L166.224 223.689C166.222 223.692 166.22 223.694 166.219 223.697C164.573 226.428 163.239 229.328 162.184 232.364L153.257 237.665L152.635 255.809L161.185 261.712C162.028 264.837 163.158 267.817 164.61 270.648C164.61 270.648 164.611 270.649 164.611 270.651L162.43 279.214L174.819 292.481L183.487 290.895C186.223 292.513 189.124 293.881 192.198 294.937C192.2 294.939 192.202 294.939 192.205 294.939L197.499 303.855L215.642 304.477L221.537 295.941C224.674 295.097 227.662 293.933 230.5 292.506C230.5 292.506 230.502 292.506 230.503 292.504L239.048 294.682L252.317 282.293L250.723 273.587C252.369 270.857 253.704 267.955 254.758 264.919L254.759 264.917L263.69 259.613L264.311 241.469Z" fill="#ECECEC"/>
<path d="M278.106 121.521C265.965 121.521 255.887 131.181 255.468 143.407C255.04 155.894 264.851 166.402 277.339 166.831C283.39 167.033 289.16 164.874 293.585 160.737C298.007 156.604 300.556 150.999 300.763 144.959C301.19 132.471 291.379 121.963 278.892 121.535C278.629 121.526 278.366 121.521 278.106 121.521ZM278.137 170.333C277.832 170.333 277.527 170.327 277.22 170.316C262.809 169.823 251.487 157.697 251.981 143.288C252.475 128.877 264.62 117.559 279.01 118.049C293.421 118.543 304.743 130.667 304.249 145.079C304.01 152.05 301.069 158.516 295.967 163.285C291.085 167.849 284.783 170.333 278.137 170.333ZM270.48 185.998L282.878 186.422L286.984 180.477C287.218 180.137 287.566 179.891 287.966 179.784C290.249 179.17 292.516 178.301 294.701 177.202C294.705 177.2 294.709 177.198 294.713 177.196C295.077 177.018 295.502 176.961 295.917 177.07L301.731 178.551L310.797 170.085L309.713 164.159C309.636 163.741 309.715 163.31 309.934 162.945C311.13 160.96 312.145 158.783 312.95 156.474C313.082 156.064 313.362 155.72 313.727 155.506L319.94 151.816L320.366 139.417L314.415 135.308C314.105 135.094 313.872 134.783 313.752 134.425C313.737 134.38 313.724 134.333 313.712 134.285C313.09 132.007 312.225 129.769 311.139 127.632C310.948 127.254 310.901 126.822 311.005 126.412L312.495 120.565L304.028 111.497L298.09 112.585C297.674 112.661 297.245 112.583 296.883 112.367C294.818 111.134 292.637 110.116 290.402 109.338C290.275 109.295 290.147 109.236 290.038 109.169C289.796 109.02 289.596 108.816 289.452 108.574L285.758 102.355L273.36 101.929L269.251 107.88C269.007 108.234 268.641 108.484 268.225 108.584C265.931 109.213 263.7 110.075 261.572 111.155C261.194 111.346 260.76 111.394 260.352 111.289L254.508 109.8L245.441 118.268L246.526 124.192C246.593 124.564 246.539 124.947 246.369 125.286C246.345 125.333 246.32 125.38 246.291 125.426C245.092 127.419 244.076 129.602 243.273 131.918C243.137 132.306 242.869 132.635 242.515 132.845L236.297 136.538L235.873 148.934L241.828 153.048C242.168 153.282 242.413 153.629 242.52 154.028C243.162 156.403 244.027 158.659 245.089 160.733C245.151 160.851 245.198 160.978 245.23 161.108C245.301 161.388 245.301 161.681 245.229 161.961L243.744 167.788L252.21 176.853L258.106 175.775C258.521 175.7 258.947 175.777 259.308 175.989C261.41 177.232 263.601 178.251 265.823 179.017C266.224 179.145 266.572 179.415 266.793 179.788L270.48 185.998ZM283.771 189.942C283.751 189.942 283.732 189.942 283.711 189.941L269.407 189.451C268.813 189.432 268.271 189.109 267.968 188.599L264.116 182.112C262.068 181.37 260.05 180.433 258.101 179.323L251.9 180.457C251.315 180.567 250.717 180.366 250.312 179.932L240.544 169.472C240.138 169.037 239.982 168.426 240.128 167.851L241.688 161.73C240.74 159.791 239.947 157.721 239.326 155.56L233.106 151.264C232.617 150.927 232.333 150.363 232.353 149.769L232.844 135.465C232.863 134.871 233.185 134.328 233.696 134.025L240.193 130.167C240.964 128.057 241.898 126.048 242.977 124.18L241.837 117.958C241.731 117.374 241.929 116.774 242.362 116.369L252.824 106.6C253.258 106.193 253.869 106.039 254.445 106.185L260.587 107.75C262.573 106.784 264.637 105.987 266.739 105.379L271.032 99.163C271.369 98.674 271.923 98.3717 272.526 98.4105L286.83 98.9011C287.424 98.9218 287.967 99.2423 288.27 99.7536L292.13 106.252C294.179 107.003 296.182 107.937 298.098 109.037L304.338 107.894C304.924 107.787 305.521 107.985 305.927 108.419L315.695 118.881C316.1 119.316 316.257 119.926 316.11 120.503L314.545 126.646C315.512 128.633 316.308 130.696 316.916 132.796L323.132 137.089C323.622 137.426 323.904 137.989 323.885 138.583L323.395 152.888C323.374 153.482 323.053 154.025 322.541 154.328L316.042 158.188C315.272 160.296 314.338 162.304 313.261 164.171L314.4 170.396C314.508 170.98 314.31 171.579 313.875 171.984L303.415 181.751C302.98 182.157 302.371 182.314 301.793 182.166L295.68 180.608C293.665 181.581 291.59 182.377 289.495 182.979L285.206 189.19C284.88 189.661 284.343 189.942 283.771 189.942Z" fill="#ECECEC"/>
<path d="M316.721 86.9969L310.795 85.4052L309.204 79.4803L311.524 77.1609L313.972 82.2301L319.041 84.6767L316.721 86.9969Z" fill="#E1E1E1"/>
<path d="M317.089 83.0308C318.168 81.9512 318.168 80.1918 317.089 79.1122C316.009 78.0335 314.258 78.0409 313.178 79.1205L316.126 74.6989L320.078 76.697L320.945 80.8501L317.089 83.0308Z" fill="#E1E1E1"/>
<path d="M318.941 81.1787C320.021 80.0991 320.021 78.3389 318.941 77.2601C317.861 76.1806 316.11 76.1888 315.031 77.2684C313.951 78.3472 313.951 80.0917 315.031 81.1704C316.11 82.25 317.861 82.2583 318.941 81.1787ZM311.057 77.6285L315.398 73.2863L321.324 74.8771L322.915 80.8029L318.573 85.1451L312.648 83.5534L311.057 77.6285Z" fill="#F0F0F0"/>
<path d="M74.5226 245.081L77.7019 244.227L78.556 241.047L77.3112 239.803L75.9978 242.522L73.2778 243.836L74.5226 245.081Z" fill="#E1E1E1"/>
<path d="M74.325 242.953C73.746 242.373 73.746 241.429 74.325 240.85C74.904 240.271 75.844 240.275 76.4239 240.854L74.8421 238.482L72.7209 239.554L72.2559 241.782L74.325 242.953Z" fill="#E1E1E1"/>
<path d="M73.331 241.958C72.7519 241.379 72.7519 240.435 73.331 239.856C73.91 239.277 74.85 239.281 75.4298 239.86C76.0089 240.439 76.0089 241.375 75.4298 241.954C74.85 242.533 73.91 242.537 73.331 241.958ZM77.5617 240.054L75.2316 237.723L72.0523 238.577L71.1982 241.757L73.5284 244.087L76.7085 243.233L77.5617 240.054Z" fill="#F0F0F0"/>
<path d="M63.0755 70.7569L65.7146 73.396C66.4018 74.0832 67.526 74.0832 68.2132 73.396C68.9004 72.7087 68.9004 71.5845 68.2132 70.8973L65.5741 68.2591C64.8869 67.5718 63.7627 67.5718 63.0755 68.2591C62.3883 68.9463 62.3883 70.0705 63.0755 70.7569Z" fill="#F0F0F0"/>
<path d="M61.2165 64.1844C63.2502 63.4542 65.4548 64.4091 66.1403 66.3188C66.8259 68.2277 65.7331 70.3662 63.6995 71.0972C61.6659 71.8274 59.4613 70.8725 58.7757 68.9636C58.0901 67.0548 59.1829 64.9154 61.2165 64.1844Z" fill="#E1E1E1"/>
<path d="M58.3401 68.5184L58.7225 69.584L66.5753 66.7632L66.1929 65.6985L58.3401 68.5184Z" fill="#F0F0F0"/>
</g>
<mask id="mask1_179700_3106" style="mask-type:luminance" maskUnits="userSpaceOnUse" x="0" y="0" width="413" height="413">
<path d="M0 6.10352e-05H413V413H0V6.10352e-05Z" fill="white"/>
</mask>
<g mask="url(#mask1_179700_3106)">
<path d="M346.02 103.6C378.471 129.9 375.359 166.004 347.543 186.587C334.204 196.459 307.343 194.546 292.064 201.514C272.133 210.605 262.016 227.442 246.743 240.884C208.751 274.321 196.395 257.792 153.141 258.23C122.732 258.538 93.8244 284.168 63.3582 266.57C26.1238 245.061 49.1815 201.995 79.5833 185.367C114.5 166.27 92.5333 121.377 142.759 88.3065C192.166 55.7753 297.823 63.4456 346.02 103.6Z" fill="#1890FF"/>
<mask id="mask2_179700_3106" style="mask-type:luminance" maskUnits="userSpaceOnUse" x="44" y="68" width="326" height="205">
<path d="M44.1074 68.0195H369.386V272.737H44.1074V68.0195Z" fill="white"/>
</mask>
<g mask="url(#mask2_179700_3106)">
<g opacity="0.899994">
<path d="M346.02 103.6C378.471 129.9 375.359 166.004 347.543 186.587C334.204 196.459 307.343 194.546 292.064 201.514C272.133 210.605 262.016 227.442 246.743 240.884C208.751 274.321 196.395 257.792 153.141 258.23C122.732 258.538 93.8244 284.168 63.3582 266.57C26.1238 245.061 49.1815 201.995 79.5833 185.367C114.5 166.27 92.5333 121.377 142.759 88.3065C192.166 55.7753 297.823 63.4456 346.02 103.6Z" fill="white"/>
</g>
</g>
</g>
<mask id="mask3_179700_3106" style="mask-type:luminance" maskUnits="userSpaceOnUse" x="0" y="0" width="413" height="413">
<path d="M0 7.20024e-05H413V413H0V7.20024e-05Z" fill="white"/>
</mask>
<g mask="url(#mask3_179700_3106)">
<path d="M366.653 343.813C366.653 348.979 294.95 353.166 206.5 353.166C118.05 353.166 46.3479 348.979 46.3479 343.813C46.3479 338.647 118.05 334.46 206.5 334.46C294.95 334.46 366.653 338.647 366.653 343.813Z" fill="#F5F5F5"/>
</g>
<mask id="mask4_179700_3106" style="mask-type:luminance" maskUnits="userSpaceOnUse" x="0" y="0" width="413" height="413">
<path d="M0 7.20024e-05H413V413H0V7.20024e-05Z" fill="white"/>
</mask>
<g mask="url(#mask4_179700_3106)">
<path d="M78.5193 98.1198C79.0306 100.37 79.8161 101.89 80.8759 102.683C81.9348 103.476 83.1837 103.709 84.6226 103.381C86.102 103.045 87.1378 102.303 87.7292 101.157C88.3214 100.01 88.3338 98.19 87.7672 95.6971C87.2906 93.5999 86.5191 92.1635 85.4527 91.3879C84.3872 90.6131 83.1292 90.3901 81.6804 90.7197C80.2919 91.0352 79.2891 91.7802 78.6721 92.954C78.0542 94.1286 78.003 95.8499 78.5193 98.1198ZM71.6271 99.6537C70.8003 96.0168 71.1695 92.9548 72.7356 90.4661C74.3009 87.9798 76.8929 86.3253 80.5108 85.5026C84.2187 84.6593 87.3021 85.0054 89.7611 86.5401C92.2201 88.0756 93.8573 90.6354 94.6734 94.2227C95.2648 96.8279 95.3127 99.0631 94.8154 100.928C94.3174 102.795 93.3452 104.38 91.8997 105.683C90.4533 106.988 88.4941 107.919 86.0218 108.482C83.5091 109.054 81.3384 109.126 79.5097 108.701C77.6809 108.275 76.0586 107.312 74.6412 105.811C73.2238 104.311 72.2194 102.259 71.6271 99.6537Z" fill="#1A2E35"/>
<path d="M104.156 95.5046C104.483 96.9427 105.016 97.9405 105.756 98.4981C106.494 99.0548 107.305 99.2324 108.187 99.0325C109.078 98.8285 109.733 98.3229 110.151 97.5143C110.57 96.7048 110.609 95.5509 110.267 94.0517C109.949 92.6533 109.423 91.677 108.691 91.1244C107.958 90.5718 107.166 90.3925 106.314 90.5858C105.412 90.7907 104.746 91.3077 104.317 92.1354C103.887 92.9622 103.833 94.0856 104.156 95.5046ZM97.9575 96.9295C97.3975 94.4672 97.7675 92.2494 99.0668 90.2752C100.365 88.3011 102.429 86.9927 105.256 86.3509C108.488 85.6158 111.143 85.9974 113.221 87.4974C114.891 88.7058 115.978 90.414 116.48 92.6227C117.045 95.1065 116.684 97.3268 115.398 99.2869C114.112 101.247 112.014 102.558 109.106 103.219C106.512 103.808 104.265 103.628 102.365 102.673C100.027 101.489 98.5588 99.5743 97.9575 96.9295Z" fill="#1A2E35"/>
<path d="M125.712 90.6197C126.002 91.8967 126.486 92.783 127.163 93.2794C127.841 93.775 128.589 93.9295 129.411 93.7428C130.13 93.5792 130.666 93.1464 131.017 92.4427C131.369 91.7389 131.384 90.6783 131.061 89.2601C130.764 87.9525 130.292 87.0505 129.646 86.5525C129 86.0544 128.312 85.8883 127.583 86.0544C126.793 86.2336 126.204 86.6937 125.817 87.4305C125.432 88.1689 125.396 89.2312 125.712 90.6197ZM122.731 106.196L117.665 83.9134L123.456 82.5959L123.999 84.9822C124.571 83.7977 125.151 82.9527 125.739 82.4456C126.533 81.7641 127.477 81.2991 128.571 81.0505C130.73 80.559 132.586 81.0059 134.143 82.3886C135.699 83.7721 136.753 85.6802 137.306 88.1119C137.917 90.7973 137.739 92.9928 136.773 94.6985C135.808 96.405 134.342 97.4821 132.376 97.9289C131.424 98.1445 130.518 98.1801 129.659 98.0347C128.8 97.8885 127.989 97.5672 127.226 97.0699L128.978 104.776L122.731 106.196Z" fill="#1A2E35"/>
<path d="M139.953 91.1068L145.962 89.1327C146.381 89.8051 146.854 90.2461 147.382 90.4576C147.909 90.6674 148.553 90.6864 149.313 90.5138C150.143 90.3246 150.747 90.0016 151.122 89.5432C151.417 89.1996 151.52 88.8312 151.43 88.4364C151.329 87.9912 151.018 87.6996 150.497 87.5633C150.124 87.4675 149.188 87.4567 147.692 87.5303C145.458 87.6451 143.888 87.6368 142.98 87.5088C142.07 87.3783 141.243 87 140.499 86.3714C139.754 85.7428 139.271 84.9407 139.049 83.9694C138.808 82.9063 138.909 81.9209 139.352 81.0106C139.795 80.1012 140.516 79.3322 141.514 78.7061C142.512 78.08 143.923 77.5604 145.747 77.1458C147.672 76.7072 149.126 76.5321 150.11 76.6171C151.094 76.703 151.963 76.9847 152.716 77.463C153.47 77.942 154.169 78.6623 154.814 79.6246L149.078 81.536C148.809 81.0528 148.469 80.7306 148.059 80.5687C147.499 80.354 146.874 80.3251 146.185 80.4828C145.486 80.6414 145.006 80.881 144.742 81.2014C144.48 81.5219 144.389 81.8598 144.469 82.2133C144.559 82.6081 144.829 82.8609 145.281 82.9699C145.732 83.0814 146.654 83.0624 148.05 82.9154C150.159 82.6816 151.763 82.6577 152.86 82.8444C153.958 83.031 154.86 83.449 155.567 84.0974C156.274 84.7458 156.732 85.5305 156.941 86.4515C157.153 87.3832 157.078 88.353 156.716 89.3615C156.353 90.3692 155.626 91.272 154.534 92.0691C153.442 92.8646 151.852 93.5006 149.764 93.9764C146.816 94.6462 144.62 94.7024 143.178 94.1465C141.735 93.5898 140.66 92.5763 139.953 91.1068Z" fill="#1A2E35"/>
<path d="M160.45 87.931L166.778 87.8955L166.81 93.49L160.482 93.5264L160.45 87.931ZM160.119 70.6776L166.899 70.6387L166.928 75.8458L165.678 86.3121L161.485 86.3352L160.148 75.8838L160.119 70.6776Z" fill="#1A2E35"/>
</g>
<mask id="mask5_179700_3106" style="mask-type:luminance" maskUnits="userSpaceOnUse" x="0" y="0" width="413" height="413">
<path d="M0 7.20024e-05H413V413H0V7.20024e-05Z" fill="white"/>
</mask>
<g mask="url(#mask5_179700_3106)">
<path d="M90.2551 122.04C90.1163 122.168 89.7141 122.688 89.1383 124.7C88.3792 127.354 88.8468 129.774 89.7388 131.512C89.9107 131.153 90.0288 130.74 90.1105 130.353C90.9679 126.297 90.7185 122.627 90.2551 122.04ZM95.6951 124.642C95.482 125.043 95.1235 125.868 94.5883 127.557C93.8796 129.794 93.8755 131.591 94.2703 132.966C94.2984 132.897 94.324 132.827 94.3471 132.759C95.3193 129.918 95.7926 126.006 95.6951 124.642ZM101.619 128.122C101.617 128.122 101.153 128.125 100.11 130.06C98.9157 132.278 98.6109 134.103 99.1792 135.642C99.2486 135.829 99.3304 136.013 99.427 136.195C99.8681 136.006 100.246 135.699 100.518 135.282C101.675 133.515 102.229 129.882 101.798 128.462C101.711 128.172 101.62 128.122 101.619 128.122ZM106.29 141.726C106.241 141.726 106.19 141.717 106.141 141.698C102.423 140.258 100.198 138.851 99.0437 137.161C98.2045 137.33 97.2645 137.218 96.3741 136.794C95.5076 136.382 94.675 135.663 94.077 134.628C93.5194 135.058 92.8306 135.176 92.0739 134.938C91.2347 134.674 90.3616 133.967 89.6356 132.946C89.1739 133.28 88.7006 133.33 88.3528 133.301C85.8971 133.102 82.57 128.213 82.3313 123.004C82.3205 122.777 82.4965 122.582 82.7245 122.573C82.9475 122.554 83.1457 122.739 83.1565 122.967C83.3828 127.91 86.5505 132.326 88.4197 132.478C88.7229 132.508 88.9773 132.413 89.1896 132.247C88.0678 130.279 87.4855 127.472 88.3446 124.472C89.0549 121.99 89.6827 121.02 90.436 121.2C91.8592 121.554 91.6725 126.959 90.9192 130.524C90.7482 131.332 90.5012 131.912 90.2204 132.327C90.8729 133.289 91.6444 133.937 92.3209 134.15C92.9256 134.34 93.3732 134.179 93.7036 133.864C93.0544 132.266 92.9206 130.086 93.8011 127.307C94.9608 123.649 95.4275 123.55 95.7067 123.491C95.9033 123.449 96.099 123.514 96.2386 123.673C97.0019 124.534 96.09 130.216 95.1285 133.026C95.0038 133.391 94.8493 133.711 94.6684 133.982C95.1814 134.987 95.9371 135.672 96.7276 136.048C97.362 136.349 98.0129 136.459 98.6051 136.404C98.5308 136.247 98.4639 136.089 98.4044 135.927C97.7494 134.154 98.0691 132.107 99.3824 129.668C100.254 128.051 100.965 127.296 101.619 127.296C101.813 127.296 102.178 127.367 102.434 127.842C103.155 129.172 102.634 133.558 101.21 135.734C100.874 136.247 100.411 136.636 99.8739 136.89C100.98 138.344 103.081 139.627 106.439 140.928C106.652 141.011 106.758 141.249 106.675 141.462C106.612 141.626 106.455 141.726 106.29 141.726Z" fill="#1A2E35"/>
<path d="M139.842 175.783C139.888 175.912 140.072 176.251 140.805 176.93C142.033 178.064 143.149 178.569 144.217 178.452C144.305 178.444 144.393 178.43 144.482 178.413C144.423 178.162 144.303 177.93 144.123 177.731C142.96 176.457 140.406 175.651 139.842 175.783ZM136.959 179.293C137.237 179.498 137.635 179.768 138.203 180.124C139.324 180.825 140.324 181.149 141.177 181.216C139.808 180.368 138.018 179.617 136.959 179.293ZM137.693 185.022C136.433 185.022 135.108 184.734 133.925 184.04C133.728 183.923 133.663 183.671 133.778 183.475C133.892 183.277 134.146 183.213 134.343 183.327C137.29 185.057 141.098 183.85 141.882 182.589C141.973 182.442 142.057 182.254 142.004 182.035C140.838 182.159 139.404 181.85 137.765 180.825C135.663 179.511 135.501 179.12 135.515 178.807C135.523 178.623 135.628 178.461 135.796 178.375C136.618 177.958 140.343 179.675 141.896 180.695C142.099 180.829 142.27 180.974 142.409 181.127C143.096 180.96 143.628 180.605 143.981 180.181C144.224 179.89 144.386 179.572 144.467 179.254C144.411 179.262 144.356 179.269 144.301 179.275C142.981 179.408 141.656 178.84 140.244 177.536C139.275 176.64 138.898 176.022 139.023 175.532C139.064 175.377 139.194 175.098 139.617 174.993C140.76 174.708 143.58 175.91 144.733 177.175C144.993 177.458 145.169 177.794 145.263 178.152C146.341 177.646 147.481 176.51 148.831 174.624C148.964 174.438 149.22 174.395 149.407 174.528C149.592 174.661 149.635 174.919 149.502 175.105C147.942 177.285 146.641 178.52 145.334 179.025C145.283 179.607 145.043 180.198 144.616 180.71C144.198 181.212 143.587 181.643 142.815 181.876C142.897 182.247 142.822 182.64 142.584 183.025C141.887 184.146 139.89 185.022 137.693 185.022Z" fill="#1A2E35"/>
<path d="M83.5035 195.719L104.946 158.081L110.929 190.738L83.5035 195.719ZM148.632 183.888L135.761 186.226L124.077 122.449L99.2437 126.96L58.7788 198.821L63.1236 222.534L115.027 213.106L118.581 232.5L143.413 227.989L139.86 208.595L152.731 206.256L148.632 183.888Z" fill="#1890FF"/>
<path d="M252.285 118.111C251.805 113.705 250.925 109.79 249.645 106.367C248.364 102.944 246.44 99.5869 243.871 96.2986C241.302 93.0094 237.804 90.1556 233.377 87.7362C228.95 85.3177 223.107 83.6335 215.847 82.6869C200.738 80.7186 188.96 83.4014 180.51 90.7322C172.059 98.0646 166.499 112.11 163.827 132.868C162.74 141.311 162.47 149.115 163.02 156.281C163.567 163.447 164.882 169.21 166.966 173.572C169.817 179.7 173.851 184.593 179.066 188.251C184.281 191.909 191.425 194.33 200.501 195.513C216.687 197.621 228.683 194.514 236.489 186.189C244.293 177.865 249.471 163.795 252.022 143.979C253.16 135.14 253.247 126.518 252.285 118.111Z" fill="#1890FF"/>
<path d="M207.958 187.033C205.972 186.966 203.858 186.786 201.675 186.501C194.113 185.518 188.262 183.604 184.284 180.813C180.36 178.06 177.391 174.439 175.205 169.739L175.164 169.654C173.576 166.331 172.539 161.597 172.079 155.589C171.58 149.074 171.835 141.82 172.838 134.028C175.786 111.131 181.876 101.577 186.465 97.5957C191.816 92.9536 199.037 90.8555 208.543 91.181C210.491 91.247 212.553 91.4213 214.674 91.6972C220.775 92.4918 225.602 93.8423 229.021 95.7091C232.333 97.5197 234.921 99.5995 236.711 101.893C238.697 104.433 240.185 107.009 241.134 109.548C242.144 112.25 242.857 115.462 243.252 119.095C244.132 126.785 244.05 134.751 243.01 142.819C240.72 160.61 236.296 173.111 229.861 179.973C225.087 185.066 217.923 187.375 207.96 187.034L207.958 187.033Z" fill="#1A2E35"/>
<path d="M202.982 128.491C196.13 128.256 190.765 122.51 190.999 115.658C191.235 108.798 196.98 103.433 203.833 103.668C210.685 103.902 216.049 109.648 215.815 116.508C215.579 123.36 209.834 128.725 202.982 128.491ZM224.124 118.355L224.231 115.226L222.31 114.599C222.231 113.53 222.052 112.474 221.798 111.457L223.426 110.257L222.32 107.318L220.306 107.48C219.826 106.53 219.262 105.625 218.63 104.778L219.673 103.036L217.528 100.748L215.728 101.669C214.917 100.981 214.062 100.356 213.147 99.8043L213.438 97.8063L210.582 96.5094L209.273 98.0441C208.276 97.7204 207.243 97.4775 206.175 97.3181L205.687 95.3588L202.55 95.2514L201.931 97.1719C200.854 97.2586 199.806 97.4296 198.789 97.684L197.58 96.0642L194.642 97.162L194.804 99.1766C193.853 99.6648 192.95 100.228 192.101 100.861L190.368 99.8176L188.072 101.954L188.994 103.763C188.305 104.565 187.68 105.428 187.137 106.344L185.139 106.043L183.834 108.899L185.376 110.209C185.053 111.206 184.802 112.247 184.65 113.308L182.682 113.803L182.575 116.931L184.504 117.56C184.583 118.636 184.762 119.685 185.017 120.7L183.389 121.902L184.495 124.84L186.508 124.679C186.988 125.628 187.552 126.532 188.184 127.38L187.141 129.122L189.286 131.41L191.087 130.488C191.89 131.177 192.752 131.802 193.667 132.354L193.367 134.352L196.224 135.648L197.541 134.115C198.538 134.438 199.572 134.68 200.64 134.84L201.127 136.8L204.264 136.907L204.884 134.985C205.961 134.899 207.008 134.728 208.025 134.473L209.226 136.093L212.165 134.995L212.01 132.981C212.961 132.494 213.856 131.929 214.713 131.297L216.446 132.34L218.742 130.204L217.82 128.396C218.509 127.593 219.134 126.729 219.678 125.815L221.676 126.115L222.98 123.258L221.438 121.949C221.762 120.952 222.012 119.919 222.164 118.849L224.124 118.355Z" fill="#1890FF"/>
<mask id="mask6_179700_3106" style="mask-type:luminance" maskUnits="userSpaceOnUse" x="209" y="159" width="29" height="29">
<path d="M209.208 159.139H237.39V187.331H209.208V159.139Z" fill="white"/>
</mask>
<g mask="url(#mask6_179700_3106)">
<g opacity="0.300003">
<path d="M226.529 175.008C225.549 176.792 223.303 177.449 221.52 176.471C219.737 175.49 219.088 173.245 220.068 171.462C221.047 169.678 223.283 169.03 225.067 170.009C226.85 170.989 227.508 173.225 226.529 175.008ZM237.163 175.826L237.39 173.718L236.122 173.201C236.117 172.476 236.055 171.758 235.934 171.058L237.09 170.324L236.503 168.283L235.13 168.295C234.853 167.628 234.527 166.988 234.142 166.386L234.924 165.262L233.599 163.612L232.334 164.139C231.828 163.638 231.284 163.175 230.689 162.759L230.996 161.415L229.137 160.395L228.165 161.376C227.499 161.092 226.81 160.885 226.119 160.726L225.885 159.375L223.777 159.139L223.26 160.406C222.534 160.411 221.826 160.483 221.116 160.604L220.383 159.437L218.342 160.035L218.353 161.408C217.696 161.684 217.056 162.012 216.444 162.396L215.321 161.603L213.67 162.929L214.198 164.194C213.707 164.7 213.234 165.245 212.817 165.838L211.483 165.541L210.463 167.401L211.435 168.362C211.161 169.039 210.945 169.719 210.785 170.419L209.434 170.643L209.207 172.752L210.474 173.278C210.469 173.994 210.542 174.712 210.662 175.412L209.497 176.145L210.094 178.186L211.466 178.185C211.743 178.842 212.07 179.481 212.455 180.084L211.662 181.207L212.987 182.867L214.263 182.33C214.767 182.831 215.313 183.294 215.907 183.711L215.6 185.054L217.46 186.075L218.431 185.102C219.098 185.377 219.787 185.585 220.478 185.743L220.711 187.095L222.82 187.331L223.337 186.063C224.052 186.059 224.77 185.987 225.48 185.866L226.213 187.032L228.244 186.434L228.244 185.062C228.9 184.784 229.54 184.458 230.152 184.074L231.266 184.866L232.925 183.54L232.389 182.275C232.89 181.77 233.352 181.225 233.779 180.631L235.113 180.928L236.134 179.068L235.161 178.107C235.436 177.43 235.642 176.751 235.802 176.06L237.163 175.826Z" fill="#1890FF"/>
</g>
</g>
<path d="M232.567 148.08C229.316 147.968 226.777 145.24 226.889 141.998C226.999 138.747 229.719 136.207 232.97 136.318C236.222 136.43 238.761 139.149 238.65 142.401C238.538 145.642 235.818 148.191 232.567 148.08ZM248.865 140.13L246.403 138.43C246.403 138.428 246.402 138.426 246.402 138.425C246.158 137.53 245.822 136.669 245.412 135.859L246.042 133.384L242.471 129.559L239.957 130.019C239.179 129.554 238.343 129.161 237.468 128.857C237.466 128.856 237.464 128.856 237.462 128.855L235.933 126.281L230.704 126.102L229.003 128.564L228.994 128.566C228.1 128.81 227.24 129.145 226.432 129.555L223.957 128.925L220.133 132.496L220.592 135.005C220.591 135.006 220.591 135.007 220.59 135.008C220.116 135.795 219.731 136.631 219.427 137.505L216.854 139.033L216.675 144.264L219.139 145.964C219.383 146.866 219.708 147.725 220.127 148.542C220.127 148.542 220.127 148.542 220.127 148.542L219.498 151.01L223.069 154.835L225.568 154.377C226.357 154.843 227.193 155.238 228.079 155.542C228.08 155.542 228.08 155.543 228.081 155.543L229.607 158.112L234.836 158.292L236.535 155.832C237.44 155.588 238.301 155.253 239.119 154.841L241.583 155.468L245.407 151.898L244.949 149.388C245.423 148.601 245.807 147.764 246.111 146.89L248.686 145.36L248.865 140.13Z" fill="white"/>
<path d="M262.63 93.0387C262.416 91.836 263.218 90.6887 264.416 90.4748C265.619 90.2592 266.766 91.0579 266.981 92.2606C267.196 93.4624 266.398 94.6089 265.195 94.8245C263.996 95.0392 262.845 94.2405 262.63 93.0387ZM266.833 98.3961L267.263 97.3586L267.266 97.3578C267.575 97.1976 267.865 97.0068 268.129 96.792L269.088 96.8292L270.211 95.216L269.844 94.3289C269.954 94.0067 270.032 93.6697 270.075 93.3236V93.322L270.899 92.5571L270.554 90.6226L269.516 90.1931C269.515 90.1914 269.514 90.1898 269.514 90.1898C269.354 89.8809 269.163 89.5909 268.949 89.3266L268.986 88.3685L267.373 87.2451L266.488 87.6118L266.487 87.611C266.161 87.4987 265.824 87.4235 265.478 87.3806L264.714 86.5562L262.78 86.9023L262.349 87.9414C262.038 88.1008 261.748 88.2892 261.481 88.5072L260.525 88.4709L259.402 90.0832L259.767 90.9637C259.657 91.2908 259.579 91.6287 259.537 91.9781V91.9789L258.713 92.7421L259.059 94.6758L260.097 95.1061C260.257 95.4192 260.448 95.7083 260.664 95.9767V95.9776L260.627 96.9308L262.24 98.0541L263.125 97.6874C263.451 97.8005 263.789 97.8749 264.134 97.9178L264.898 98.7422L266.833 98.3961Z" fill="#1890FF"/>
<path d="M244.172 92.9161L243.541 92.3834C244.637 91.0849 246.193 89.4395 248.503 88.2294L248.886 88.9621C246.423 90.2506 244.846 92.119 244.172 92.9161Z" fill="#1890FF"/>
<path d="M250.766 88.2183L250.44 87.4583C253.564 86.1202 256.829 85.5982 260.136 85.9055L260.059 86.7282C256.888 86.4258 253.762 86.933 250.766 88.2183Z" fill="#1890FF"/>
<path d="M249.206 93.9324L248.524 93.4682C250.221 90.9761 253.574 88.8062 256.678 88.1908L256.838 89.0003C253.93 89.5785 250.791 91.6064 249.206 93.9324Z" fill="#1890FF"/>
<path d="M185.326 150.881C183.824 153.146 183.296 155.862 183.837 158.528C184.378 161.192 185.924 163.487 188.191 164.989C192.872 168.089 199.2 166.807 202.3 162.129C205.4 157.451 204.118 151.118 199.44 148.015C194.763 144.915 188.432 146.2 185.326 150.881ZM193.799 167.506C191.711 167.506 189.601 166.915 187.735 165.678C185.284 164.054 183.612 161.572 183.027 158.692C182.442 155.811 183.014 152.875 184.638 150.424C187.996 145.365 194.841 143.976 199.897 147.326C204.953 150.682 206.34 157.527 202.988 162.586C200.874 165.777 197.369 167.506 193.799 167.506ZM189.737 170.178C189.777 170.178 189.815 170.184 189.853 170.196C190.738 170.455 191.658 170.627 192.588 170.705C192.688 170.713 192.782 170.757 192.851 170.828L194.533 172.562L199.407 171.573L200.282 169.316C200.319 169.223 200.388 169.145 200.477 169.1C201.305 168.668 202.087 168.154 202.803 167.571C202.878 167.51 202.963 167.467 203.069 167.478L205.936 167.521L208.684 163.375L207.524 160.745C207.485 160.657 207.479 160.557 207.506 160.464C207.767 159.563 207.938 158.642 208.015 157.729C208.023 157.629 208.067 157.536 208.139 157.466L209.872 155.785L208.884 150.909L206.631 150.036C206.535 149.999 206.458 149.928 206.411 149.836C205.982 149.01 205.467 148.231 204.882 147.519C204.82 147.443 204.787 147.348 204.788 147.249L204.833 144.381L200.686 141.633L198.063 142.789C197.975 142.828 197.875 142.834 197.781 142.809C196.886 142.548 195.962 142.377 195.036 142.299C194.937 142.292 194.844 142.247 194.775 142.176L193.095 140.444L188.22 141.433L187.347 143.685C187.311 143.779 187.242 143.856 187.152 143.902C186.33 144.33 185.547 144.846 184.826 145.434C184.75 145.495 184.65 145.539 184.557 145.529L181.692 145.484L178.944 149.631L180.102 152.257C180.151 152.37 180.148 152.499 180.093 152.609C179.86 153.434 179.689 154.355 179.613 155.279C179.604 155.378 179.561 155.471 179.489 155.542L177.755 157.223L178.744 162.097L180.994 162.97C181.095 163.009 181.176 163.085 181.221 163.182C181.649 164.002 182.162 164.779 182.744 165.488C182.806 165.563 182.841 165.66 182.839 165.758L182.795 168.625L186.941 171.374L189.571 170.214C189.624 170.191 189.68 170.178 189.737 170.178ZM194.393 173.425C194.282 173.425 194.175 173.38 194.097 173.299L192.364 171.513C191.483 171.431 190.61 171.269 189.767 171.03L187.067 172.22C186.939 172.279 186.791 172.264 186.672 172.187L182.15 169.189C182.033 169.11 181.963 168.979 181.966 168.838L182.01 165.895C181.461 165.211 180.971 164.468 180.552 163.684L178.235 162.785C178.103 162.734 178.007 162.62 177.979 162.483L176.901 157.165C176.873 157.027 176.917 156.885 177.018 156.786L178.803 155.055C178.886 154.177 179.048 153.304 179.286 152.453L178.097 149.758C178.04 149.628 178.052 149.48 178.13 149.362L181.127 144.84C181.205 144.723 181.316 144.65 181.479 144.655L184.42 144.7C185.11 144.149 185.854 143.659 186.633 143.243L187.531 140.924C187.583 140.793 187.697 140.697 187.835 140.669L193.152 139.59C193.29 139.564 193.432 139.607 193.531 139.707L195.26 141.491C196.139 141.572 197.014 141.736 197.865 141.974L200.56 140.785C200.688 140.729 200.837 140.742 200.955 140.819L205.477 143.817C205.594 143.895 205.664 144.026 205.662 144.168L205.617 147.112C206.167 147.798 206.657 148.54 207.075 149.322L209.393 150.221C209.525 150.273 209.62 150.386 209.648 150.524L210.726 155.842C210.754 155.979 210.71 156.122 210.609 156.221L208.823 157.953C208.742 158.82 208.58 159.692 208.34 160.549L209.531 163.249C209.588 163.378 209.575 163.527 209.497 163.644L206.5 168.166C206.422 168.283 206.299 168.342 206.149 168.35L203.206 168.307C202.521 168.853 201.778 169.342 200.997 169.759L200.096 172.082C200.045 172.214 199.931 172.309 199.793 172.338L194.476 173.416C194.448 173.422 194.42 173.425 194.393 173.425Z" fill="white"/>
<path d="M286.133 182.489L318.147 153.309L313.757 186.218L286.133 182.489ZM351.733 191.343L338.769 189.593L347.343 125.323L322.33 121.948L261.658 177.807L258.471 201.703L310.749 208.759L308.142 228.304L333.154 231.679L335.761 212.135L348.725 213.883L351.733 191.343Z" fill="#1890FF"/>
<path d="M325.554 231.066C325.53 231.066 325.505 231.064 325.48 231.06C325.255 231.018 325.107 230.803 325.148 230.579L344.415 124.909C344.456 124.686 344.673 124.545 344.896 124.577C345.12 124.618 345.269 124.833 345.227 125.057L325.96 230.728C325.924 230.927 325.75 231.066 325.554 231.066Z" fill="#1A2E35"/>
<path d="M342.651 126.684C342.637 127.057 342.324 127.349 341.951 127.337C341.578 127.324 341.284 127.011 341.298 126.637C341.31 126.263 341.624 125.971 341.997 125.983C342.371 125.996 342.663 126.31 342.651 126.684Z" fill="#1A2E35"/>
<path d="M339.898 140.974C339.885 141.348 339.572 141.64 339.198 141.628C338.825 141.614 338.532 141.301 338.545 140.927C338.557 140.554 338.871 140.261 339.244 140.274C339.618 140.287 339.91 140.601 339.898 140.974Z" fill="#1A2E35"/>
<path d="M337.145 155.265C337.133 155.638 336.819 155.93 336.446 155.918C336.072 155.905 335.779 155.592 335.792 155.218C335.805 154.844 336.119 154.553 336.492 154.564C336.865 154.577 337.159 154.891 337.145 155.265Z" fill="#1A2E35"/>
<path d="M331.733 170.141C331.719 170.515 331.406 170.807 331.033 170.794C330.659 170.781 330.366 170.468 330.38 170.094C330.392 169.721 330.706 169.429 331.079 169.441C331.453 169.454 331.745 169.767 331.733 170.141Z" fill="#1A2E35"/>
<path d="M331.64 183.845C331.628 184.219 331.314 184.512 330.94 184.499C330.567 184.486 330.275 184.173 330.287 183.798C330.3 183.425 330.613 183.133 330.987 183.145C331.36 183.158 331.653 183.472 331.64 183.845Z" fill="#1A2E35"/>
<path d="M328.888 198.136C328.874 198.509 328.561 198.802 328.188 198.789C327.815 198.776 327.521 198.463 327.535 198.089C327.547 197.715 327.861 197.423 328.234 197.435C328.608 197.449 328.9 197.763 328.888 198.136Z" fill="#1A2E35"/>
<path d="M326.135 212.426C326.122 212.8 325.809 213.093 325.435 213.08C325.062 213.066 324.769 212.753 324.782 212.379C324.795 212.006 325.108 211.713 325.481 211.726C325.855 211.739 326.147 212.053 326.135 212.426Z" fill="#1A2E35"/>
<path d="M323.382 226.717C323.37 227.09 323.056 227.383 322.683 227.37C322.309 227.357 322.017 227.044 322.029 226.67C322.042 226.296 322.355 226.005 322.729 226.016C323.102 226.03 323.395 226.343 323.382 226.717Z" fill="#1A2E35"/>
<path d="M331.056 170.531C330.866 170.531 330.694 170.399 330.653 170.204C330.605 169.982 330.746 169.762 330.97 169.714L333.021 169.274C333.247 169.229 333.464 169.367 333.511 169.591C333.559 169.814 333.417 170.033 333.194 170.082L331.142 170.522C331.114 170.528 331.085 170.531 331.056 170.531Z" fill="#1A2E35"/>
<path d="M337.904 162.921C337.904 162.921 336.055 167.736 335.433 170.653C334.811 173.571 334.773 180.09 334.773 180.09" fill="#1A2E35"/>
<path d="M334.774 180.503H334.771C334.543 180.501 334.36 180.315 334.361 180.087C334.362 179.82 334.405 173.493 335.03 170.567C335.652 167.651 337.442 162.971 337.518 162.773C337.6 162.56 337.838 162.455 338.052 162.536C338.265 162.617 338.372 162.857 338.29 163.069C338.271 163.117 336.445 167.888 335.837 170.739C335.231 173.583 335.187 180.028 335.187 180.092C335.186 180.319 335.001 180.503 334.774 180.503Z" fill="#1A2E35"/>
</g>
<mask id="mask7_179700_3106" style="mask-type:luminance" maskUnits="userSpaceOnUse" x="0" y="0" width="413" height="413">
<path d="M0 6.10352e-05H413V413H0V6.10352e-05Z" fill="white"/>
</mask>
<g mask="url(#mask7_179700_3106)">
<path d="M183.745 251.799C184.893 233.294 182.782 199.656 217.566 204.109C254.847 208.881 244.181 252.476 244.181 252.476L183.745 251.799Z" fill="#1A2E35"/>
<path d="M222.928 225.498C222.928 233.88 216.133 240.676 207.751 240.676C199.368 240.676 192.572 233.88 192.572 225.498C192.572 217.116 199.368 210.32 207.751 210.32C216.133 210.32 222.928 217.116 222.928 225.498Z" fill="white"/>
<path d="M209.744 210.344C202.554 209.116 194.868 214.416 194.11 219.785L222.613 222.406C221.608 216.285 215.448 211.318 209.744 210.344Z" fill="#1A2E35"/>
<path d="M219.366 225.12C219.162 229.089 216.999 232.203 214.535 232.076C212.071 231.95 210.239 228.63 210.443 224.662C210.646 220.695 212.809 217.58 215.273 217.706C217.737 217.833 219.57 221.152 219.366 225.12Z" fill="#1A2E35"/>
<path d="M207.75 211.146C199.836 211.146 193.399 217.584 193.399 225.498C193.399 233.412 199.836 239.85 207.75 239.85C215.664 239.85 222.102 233.412 222.102 225.498C222.102 217.584 215.664 211.146 207.75 211.146ZM207.75 241.502C198.925 241.502 191.747 234.323 191.747 225.498C191.747 216.673 198.925 209.494 207.75 209.494C216.575 209.494 223.754 216.673 223.754 225.498C223.754 234.323 216.575 241.502 207.75 241.502Z" fill="#1890FF"/>
<mask id="mask8_179700_3106" style="mask-type:luminance" maskUnits="userSpaceOnUse" x="239" y="227" width="3" height="25">
<path d="M239.453 227.679H241.53V251.333H239.453V227.679Z" fill="white"/>
</mask>
<g mask="url(#mask8_179700_3106)">
<g opacity="0.300003">
<path d="M239.941 251.333C239.908 251.333 239.876 251.329 239.843 251.322C239.622 251.269 239.486 251.045 239.538 250.823C239.566 250.712 242.197 239.511 239.464 228.188C239.41 227.966 239.547 227.743 239.769 227.69C239.988 227.639 240.213 227.772 240.267 227.995C243.049 239.517 240.369 250.903 240.341 251.017C240.296 251.207 240.127 251.333 239.941 251.333Z" fill="white"/>
</g>
</g>
<mask id="mask9_179700_3106" style="mask-type:luminance" maskUnits="userSpaceOnUse" x="233" y="214" width="6" height="8">
<path d="M233.253 214.754H238.052V221.995H233.253V214.754Z" fill="white"/>
</mask>
<g mask="url(#mask9_179700_3106)">
<g opacity="0.300003">
<path d="M237.638 221.995C237.481 221.995 237.332 221.905 237.263 221.753C236.2 219.436 234.883 217.308 233.346 215.429C233.201 215.252 233.228 214.992 233.404 214.848C233.58 214.703 233.84 214.728 233.986 214.906C235.567 216.84 236.922 219.028 238.013 221.41C238.108 221.617 238.018 221.862 237.81 221.957C237.754 221.982 237.695 221.995 237.638 221.995Z" fill="white"/>
</g>
</g>
<path d="M106.335 338.592C106.232 338.592 106.13 338.591 106.028 338.588C103.748 338.525 101.95 336.626 102.013 334.346C102.075 332.067 103.953 330.303 106.254 330.331C106.281 330.332 106.307 330.332 106.333 330.332C108.72 330.332 114.46 327.433 126.47 308.501C127.116 307.485 128.172 306.8 129.364 306.627C130.557 306.458 131.763 306.81 132.672 307.601C147.491 320.522 163.195 328.565 163.352 328.645C165.386 329.677 166.197 332.164 165.165 334.196C164.133 336.23 161.647 337.044 159.615 336.01C158.991 335.694 145.264 328.675 130.871 316.892C120.807 332.023 113.337 338.592 106.335 338.592Z" fill="#1A2E35"/>
<path d="M131.888 306.859C131.77 306.859 131.653 306.851 131.534 306.834C130.18 306.64 129.238 305.385 129.431 304.03C130.019 299.92 129.291 284.515 124.084 272.538C123.609 271.447 123.977 270.172 124.96 269.502C136.275 261.791 160.377 260.869 161.397 260.833C162.758 260.804 163.912 261.857 163.96 263.224C164.007 264.591 162.937 265.739 161.57 265.786C161.346 265.794 140.275 266.603 129.448 272.562C134.06 284.488 135.106 299.354 134.338 304.732C134.161 305.968 133.101 306.859 131.888 306.859Z" fill="#1A2E35"/>
<path d="M136.051 303.651C134.402 299.764 126.974 300.205 122.613 303.536C120.282 305.317 117.128 310.674 116.796 312.615C116.464 314.557 117.81 316.316 120.119 316.116C122.967 315.869 126.877 311.731 126.877 311.731C124.276 314.282 127.632 316.081 132.64 312.392C135.418 310.346 137.896 308.004 136.051 303.651Z" fill="#1890FF"/>
<path d="M286.396 235.112C286.769 235.251 287.19 235.333 287.583 235.379C291.699 235.866 295.333 235.291 295.876 234.778C295.736 234.65 295.182 234.297 293.127 233.904C290.416 233.388 288.047 234.067 286.396 235.112ZM285.355 239.756C285.426 239.777 285.498 239.797 285.568 239.814C288.484 240.528 292.422 240.65 293.772 240.428C293.354 240.252 292.5 239.969 290.77 239.588C288.479 239.083 286.688 239.24 285.355 239.756ZM282.601 245.181C282.829 245.604 283.168 245.953 283.608 246.187C285.472 247.179 289.139 247.406 290.515 246.851C290.796 246.737 290.838 246.642 290.838 246.642C290.838 246.639 290.792 246.177 288.772 245.313C286.457 244.321 284.61 244.183 283.129 244.885C282.949 244.971 282.773 245.07 282.601 245.181ZM278.119 252.889C278.082 252.889 278.043 252.885 278.005 252.873C277.786 252.81 277.659 252.581 277.722 252.363C278.823 248.53 280.025 246.188 281.604 244.886C281.362 244.064 281.389 243.119 281.73 242.194C282.062 241.295 282.704 240.401 283.681 239.712C283.203 239.195 283.025 238.519 283.194 237.746C283.381 236.885 284.007 235.953 284.958 235.138C284.584 234.708 284.492 234.239 284.49 233.892C284.469 231.429 289.039 227.677 294.205 226.972C294.432 226.93 294.64 227.098 294.67 227.325C294.701 227.551 294.543 227.759 294.317 227.79C289.412 228.459 285.299 232.01 285.316 233.886C285.318 234.19 285.431 234.434 285.615 234.632C287.474 233.337 290.219 232.505 293.282 233.093C295.817 233.578 296.848 234.113 296.729 234.883C296.504 236.331 291.104 236.63 287.486 236.199C286.666 236.101 286.065 235.908 285.627 235.666C284.727 236.402 284.151 237.228 284.001 237.921C283.866 238.539 284.065 238.971 284.41 239.272C285.943 238.482 288.101 238.151 290.948 238.781C294.695 239.607 294.836 240.064 294.92 240.336C294.979 240.531 294.931 240.73 294.787 240.883C293.997 241.72 288.256 241.323 285.372 240.616C284.996 240.524 284.664 240.399 284.378 240.243C283.423 240.845 282.808 241.658 282.506 242.48C282.262 243.139 282.207 243.796 282.319 244.383C282.468 244.293 282.62 244.213 282.775 244.139C284.484 243.328 286.551 243.463 289.097 244.553C290.786 245.276 291.601 245.916 291.66 246.567C291.678 246.761 291.64 247.129 291.189 247.428C289.929 248.265 285.514 248.138 283.219 246.916C282.678 246.627 282.249 246.201 281.949 245.688C280.599 246.922 279.51 249.13 278.515 252.59C278.463 252.771 278.299 252.889 278.119 252.889Z" fill="#1A2E35"/>
<path d="M170.592 337.213C171.135 337.039 170.954 336.513 170.346 336.513H159.163C137.868 334.258 122.989 337.281 132.364 337.993C141.74 338.706 131.704 338.556 124.858 341.146C118.011 343.736 175.784 344.389 181.038 341.146C185.884 338.156 163.046 339.631 170.592 337.213Z" fill="#1A2E35"/>
<path d="M250.665 340.509L153.361 337.283L149.322 242.936L264.228 245.506L250.665 340.509Z" fill="#1890FF"/>
<path d="M183.745 338.703C183.532 338.703 183.351 338.541 183.334 338.324L175.534 243.565C175.515 243.338 175.684 243.139 175.911 243.12C176.145 243.107 176.338 243.27 176.357 243.497L184.157 338.257C184.176 338.484 184.007 338.684 183.78 338.702C183.767 338.703 183.757 338.703 183.745 338.703Z" fill="#1A2E35"/>
<path d="M250.665 340.509L276.819 336.527L285.056 248.798L264.228 245.506L250.665 340.509Z" fill="#1890FF"/>
<mask id="mask10_179700_3106" style="mask-type:luminance" maskUnits="userSpaceOnUse" x="250" y="245" width="36" height="96">
<path d="M250.666 245.505H285.056V340.509H250.666V245.505Z" fill="white"/>
</mask>
<g mask="url(#mask10_179700_3106)">
<g opacity="0.199997">
<path d="M250.665 340.509L276.819 336.528L285.056 248.798L264.228 245.506L250.665 340.509Z" fill="black"/>
</g>
</g>
<path d="M161.677 319.096L159.277 263.043C159.027 257.193 163.774 252.347 169.629 252.479L242.365 254.104C248.44 254.241 253.03 259.654 252.171 265.668L244.107 322.16C243.376 327.28 238.907 331.027 233.739 330.856L171.466 328.792C166.17 328.616 161.903 324.391 161.677 319.096Z" fill="#1A2E35"/>
<path d="M169.534 269.679L180.788 270.038L180.695 272.939L173.65 272.715L173.582 274.874L180.117 275.082L180.028 277.853L173.493 277.647L173.408 280.326L180.657 280.556L180.559 283.634L169.101 283.269L169.534 269.679Z" fill="white"/>
<path d="M187.351 275.758L189.121 275.814C189.313 275.82 189.686 275.771 190.24 275.665C190.52 275.618 190.751 275.483 190.935 275.259C191.119 275.037 191.214 274.777 191.224 274.48C191.238 274.042 191.11 273.701 190.839 273.457C190.569 273.213 190.05 273.079 189.283 273.055L187.439 272.995L187.351 275.758ZM182.876 283.707L183.309 270.117L190.307 270.34C191.605 270.382 192.593 270.525 193.272 270.769C193.951 271.013 194.491 271.443 194.892 272.058C195.293 272.675 195.48 273.416 195.453 274.28C195.429 275.035 195.247 275.68 194.908 276.217C194.569 276.753 194.113 277.183 193.54 277.504C193.174 277.709 192.676 277.874 192.048 277.996C192.543 278.179 192.901 278.357 193.125 278.53C193.275 278.647 193.492 278.893 193.773 279.267C194.055 279.641 194.243 279.929 194.335 280.13L196.243 284.133L191.499 283.981L189.386 279.757C189.119 279.211 188.877 278.853 188.659 278.685C188.363 278.466 188.024 278.35 187.64 278.338L187.269 278.325L187.094 283.841L182.876 283.707Z" fill="white"/>
<path d="M202.118 276.228L203.889 276.284C204.08 276.29 204.453 276.241 205.006 276.134C205.286 276.088 205.518 275.953 205.702 275.73C205.885 275.507 205.981 275.247 205.991 274.95C206.005 274.511 205.877 274.17 205.606 273.926C205.335 273.683 204.816 273.549 204.051 273.525L202.205 273.465L202.118 276.228ZM197.643 284.177L198.075 270.588L205.074 270.81C206.372 270.851 207.36 270.994 208.039 271.239C208.717 271.483 209.258 271.913 209.659 272.528C210.06 273.145 210.246 273.885 210.219 274.751C210.195 275.505 210.013 276.149 209.675 276.687C209.336 277.223 208.879 277.652 208.306 277.975C207.941 278.179 207.443 278.343 206.814 278.465C207.309 278.649 207.668 278.826 207.891 279C208.043 279.117 208.258 279.362 208.541 279.736C208.822 280.111 209.009 280.399 209.102 280.6L211.01 284.602L206.265 284.451L204.153 280.227C203.885 279.681 203.643 279.323 203.426 279.156C203.13 278.935 202.79 278.82 202.407 278.807L202.036 278.795L201.861 284.311L197.643 284.177Z" fill="white"/>
<path d="M215.915 277.984C215.872 279.356 216.096 280.35 216.586 280.966C217.077 281.581 217.761 281.903 218.639 281.931C219.541 281.96 220.249 281.688 220.762 281.117C221.275 280.547 221.555 279.5 221.603 277.98C221.645 276.701 221.416 275.758 220.919 275.151C220.422 274.545 219.732 274.227 218.848 274.199C218 274.172 217.311 274.451 216.779 275.034C216.247 275.617 215.959 276.6 215.915 277.984ZM211.717 277.832C211.788 275.614 212.46 273.907 213.736 272.71C215.011 271.514 216.752 270.949 218.958 271.02C221.22 271.092 222.943 271.755 224.128 273.008C225.313 274.261 225.87 275.981 225.801 278.17C225.751 279.757 225.442 281.051 224.875 282.051C224.308 283.05 223.511 283.817 222.482 284.35C221.454 284.884 220.186 285.126 218.678 285.078C217.145 285.029 215.885 284.745 214.896 284.225C213.907 283.705 213.118 282.907 212.527 281.83C211.937 280.753 211.666 279.42 211.717 277.832Z" fill="white"/>
<path d="M232.374 277.191L234.144 277.247C234.336 277.253 234.708 277.203 235.263 277.097C235.543 277.05 235.774 276.916 235.958 276.692C236.142 276.47 236.237 276.209 236.246 275.913C236.261 275.474 236.132 275.133 235.862 274.89C235.591 274.646 235.073 274.511 234.306 274.487L232.462 274.428L232.374 277.191ZM227.899 285.139L228.332 271.55L235.33 271.772C236.628 271.814 237.616 271.956 238.295 272.202C238.974 272.445 239.514 272.876 239.915 273.491C240.316 274.108 240.503 274.848 240.476 275.713C240.452 276.467 240.27 277.112 239.931 277.649C239.592 278.186 239.136 278.616 238.563 278.937C238.197 279.142 237.699 279.306 237.071 279.428C237.566 279.611 237.924 279.789 238.148 279.963C238.298 280.08 238.515 280.325 238.796 280.7C239.078 281.074 239.266 281.361 239.358 281.563L241.266 285.566L236.522 285.414L234.409 281.189C234.142 280.643 233.899 280.286 233.682 280.118C233.386 279.898 233.046 279.783 232.663 279.77L232.292 279.758L232.116 285.274L227.899 285.139Z" fill="white"/>
<path d="M234.583 308.229C234.289 308.229 233.997 308.11 233.782 307.876L226.712 300.137L219.082 307.109C218.64 307.513 217.954 307.481 217.55 307.04L210.479 299.3L202.849 306.272C202.407 306.676 201.721 306.644 201.318 306.203L194.246 298.464L186.617 305.436C186.405 305.63 186.119 305.732 185.837 305.719C185.549 305.706 185.279 305.58 185.085 305.367L178.014 297.629L170.384 304.599C169.943 305.004 169.257 304.972 168.853 304.531C168.449 304.089 168.48 303.402 168.922 302.999L177.351 295.297C177.793 294.891 178.48 294.923 178.884 295.365L185.954 303.104L193.584 296.132C193.796 295.938 194.08 295.838 194.365 295.849C194.651 295.862 194.922 295.989 195.116 296.2L202.187 303.94L209.817 296.969C210.258 296.564 210.944 296.595 211.349 297.037L218.419 304.776L226.049 297.805C226.491 297.4 227.177 297.431 227.58 297.874L235.384 306.413C235.788 306.855 235.756 307.541 235.314 307.944C235.106 308.135 234.844 308.229 234.583 308.229Z" fill="white"/>
<path d="M103.87 342.515L98.7004 340.049L94.0889 317.609L96.5916 314.853L103.87 342.515Z" fill="#1890FF"/>
<path d="M103.869 342.515L110.729 338.507L104.848 320.019L96.5916 314.853L103.869 342.515Z" fill="#1890FF"/>
<mask id="mask11_179700_3106" style="mask-type:luminance" maskUnits="userSpaceOnUse" x="96" y="314" width="15" height="29">
<path d="M96.5916 314.853H110.729V342.515H96.5916V314.853Z" fill="white"/>
</mask>
<g mask="url(#mask11_179700_3106)">
<g opacity="0.199997">
<path d="M103.869 342.515L110.729 338.507L104.848 320.019L96.5916 314.853L103.869 342.515Z" fill="black"/>
</g>
</g>
<path d="M216.37 346.594C216.175 346.594 215.984 346.591 215.799 346.586C213.519 346.523 211.721 344.624 211.784 342.344C211.846 340.065 213.73 338.273 216.026 338.329C222.388 338.537 235.855 334.629 243.547 327.162C244.023 326.7 244.602 326.36 245.237 326.169C258.278 322.255 263.132 330.162 263.331 330.501L256.222 334.705C256.222 334.705 256.249 334.762 256.317 334.856C256.239 334.747 254.392 332.346 248.511 333.832C238.857 342.643 224.039 346.594 216.37 346.594Z" fill="#1A2E35"/>
<path d="M215.912 352.084L200.868 351.137L199.681 323.402L219.899 324.158L215.912 352.084Z" fill="#1890FF"/>
<path d="M215.912 352.084L219.428 348.585L221.608 331.291L219.899 324.158L215.912 352.084Z" fill="#1890FF"/>
<mask id="mask12_179700_3106" style="mask-type:luminance" maskUnits="userSpaceOnUse" x="215" y="324" width="7" height="29">
<path d="M215.912 324.158H221.608V352.084H215.912V324.158Z" fill="white"/>
</mask>
<g mask="url(#mask12_179700_3106)">
<g opacity="0.199997">
<path d="M215.912 352.084L219.428 348.585L221.608 331.291L219.899 324.158L215.912 352.084Z" fill="black"/>
</g>
</g>
<path d="M303.068 341.582C302.546 341.582 302.019 341.417 301.57 341.077C292.984 334.551 281.379 322.966 276.925 311.789C276.86 311.626 276.813 311.456 276.784 311.282C274.612 298.37 272.537 271.187 272.45 270.037C272.346 268.672 273.368 267.482 274.733 267.379C276.094 267.279 277.288 268.297 277.392 269.663C277.412 269.94 279.508 297.388 281.626 310.197C286.069 321.064 298.112 332.223 304.569 337.13C305.659 337.959 305.871 339.513 305.043 340.603C304.555 341.245 303.816 341.582 303.068 341.582Z" fill="#1A2E35"/>
<path d="M314.522 342.833C312.607 342.833 310.435 341.965 308.068 340.252C306.959 339.449 306.71 337.901 307.513 336.792C308.316 335.684 309.865 335.435 310.973 336.237C313.019 337.718 314.137 337.877 314.522 337.877C315.891 337.877 317 338.987 317 340.355C317 341.724 315.891 342.833 314.522 342.833Z" fill="#1A2E35"/>
<path d="M308.762 340.182C311.414 332.305 322.284 333.862 326.027 335.032C329.77 336.202 333.143 337.673 335.17 338.998C337.198 340.324 337.23 342.539 334.527 343.803C331.193 345.362 322.83 343.978 322.83 343.978C327.159 345.874 322.822 348.911 315.226 345.928C312.754 344.956 307.826 343.067 308.762 340.182Z" fill="#1890FF"/>
<path d="M282.378 273.436C281.394 280.128 275.852 285.063 271.345 284.4C266.837 283.738 266.649 277.761 267.633 271.069C268.617 264.376 270.399 259.504 274.907 260.167C279.415 260.829 283.361 266.744 282.378 273.436Z" fill="#1A2E35"/>
<path d="M174.034 246.045C174.034 246.418 173.73 246.721 173.357 246.721C172.983 246.721 172.68 246.418 172.68 246.045C172.68 245.671 172.983 245.368 173.357 245.368C173.73 245.368 174.034 245.671 174.034 246.045Z" fill="#1A2E35"/>
<path d="M180.24 250.92C180.24 251.294 179.937 251.597 179.564 251.597C179.189 251.597 178.886 251.294 178.886 250.92C178.886 250.547 179.189 250.243 179.564 250.243C179.937 250.243 180.24 250.547 180.24 250.92Z" fill="#1A2E35"/>
<path d="M180.997 330.964C180.997 331.338 180.694 331.64 180.321 331.64C179.947 331.64 179.644 331.338 179.644 330.964C179.644 330.59 179.947 330.287 180.321 330.287C180.694 330.287 180.997 330.59 180.997 330.964Z" fill="#1A2E35"/>
<path d="M187.204 335.84C187.204 336.213 186.901 336.516 186.526 336.516C186.153 336.516 185.85 336.213 185.85 335.84C185.85 335.466 186.153 335.163 186.526 335.163C186.901 335.163 187.204 335.466 187.204 335.84Z" fill="#1A2E35"/>
</g>
<mask id="mask13_179700_3106" style="mask-type:luminance" maskUnits="userSpaceOnUse" x="0" y="0" width="413" height="413">
<path d="M0 7.20024e-05H413V413H0V7.20024e-05Z" fill="white"/>
</mask>
<g mask="url(#mask13_179700_3106)">
<path d="M77.2374 335.688H77.2357C77.2341 335.688 76.926 335.844 76.8062 337.224C76.6856 338.614 76.9376 339.557 77.5777 340.103C77.7223 340.226 77.8883 340.33 78.0725 340.416C78.3054 340.157 78.4657 339.868 78.521 339.566C78.7424 338.369 78.1724 336.616 77.5331 335.907C77.3671 335.722 77.2605 335.688 77.2374 335.688ZM72.041 336.405C72.0361 336.715 72.0642 337.237 72.1872 338.105C72.3549 339.284 72.7902 340.19 73.4419 340.767C73.2486 339.109 72.5127 337.188 72.041 336.405ZM67.4394 337.125C67.3915 337.252 67.3047 337.669 67.5088 338.813C67.7805 340.333 68.7643 341.343 69.8546 341.876C69.8488 341.7 69.8166 341.505 69.758 341.291C69.1096 338.93 67.8763 337.303 67.4394 337.125ZM68.153 343.962C66.188 343.962 63.5299 342.77 62.096 340.7C61.9663 340.513 62.0126 340.255 62.2001 340.126C62.3876 339.995 62.6445 340.042 62.775 340.231C64.3163 342.456 67.7136 343.643 69.2219 342.94C69.3805 342.865 69.5093 342.772 69.6085 342.66C68.2604 342.037 67.028 340.818 66.696 338.958C66.5085 337.911 66.3598 336.496 67.2238 336.301C68.4083 336.035 69.9579 338.901 70.5542 341.072C70.6649 341.474 70.6996 341.845 70.6624 342.181C71.1845 342.324 71.6974 342.361 72.1377 342.297C72.4953 342.245 73.0041 342.098 73.2734 341.682C72.2698 341.004 71.5942 339.808 71.3695 338.221C71.049 335.963 71.2894 335.569 71.5396 335.376C71.7024 335.251 71.9089 335.227 72.1079 335.312C72.9909 335.688 74.0614 338.892 74.2663 340.705C74.2886 340.905 74.2886 341.096 74.2679 341.278C74.6058 341.413 74.9791 341.486 75.3822 341.493C76.0983 341.535 76.8062 341.308 77.3729 340.974C77.2556 340.901 77.1449 340.819 77.0408 340.73C76.1834 339.998 75.8381 338.828 75.9827 337.153C76.095 335.859 76.3899 335.151 76.9103 334.928C77.0928 334.847 77.4645 334.772 77.9081 335.126C78.8002 335.84 79.6328 338.098 79.3338 339.716C79.271 340.05 79.1273 340.372 78.9183 340.667C80.434 340.929 82.5667 340.502 84.4062 340.048C84.6268 339.994 84.8515 340.128 84.906 340.35C84.9613 340.572 84.8259 340.796 84.6045 340.85C82.366 341.403 79.9566 341.854 78.2542 341.36C77.4976 341.962 76.4329 342.327 75.3649 342.319C74.8783 342.31 74.4249 342.223 74.011 342.066C73.6856 342.62 73.0801 342.995 72.2566 343.115C71.7081 343.197 71.0622 343.144 70.408 342.957C70.2222 343.267 69.9413 343.516 69.5713 343.689C69.1765 343.872 68.6908 343.962 68.153 343.962Z" fill="#1A2E35"/>
<path d="M189.049 350.205L191.288 346.323L189.049 342.442H186.653L188.007 346.324L186.653 350.205H189.049Z" fill="#1A2E35"/>
<path d="M186.811 348.347C185.696 348.347 184.787 347.438 184.787 346.323C184.787 345.208 185.696 344.308 186.811 344.308L183.005 343.546L181.995 346.62L183.693 349.213L186.811 348.347Z" fill="#1A2E35"/>
<path d="M184.897 348.347C183.782 348.347 182.874 347.438 182.874 346.323C182.874 345.208 183.782 344.308 184.897 344.308C186.012 344.308 186.913 345.208 186.913 346.323C186.913 347.438 186.012 348.347 184.897 348.347ZM187.136 342.442H182.651L180.412 346.323L182.651 350.205H187.136L189.374 346.323L187.136 342.442Z" fill="#1890FF"/>
<path d="M345.177 342.183L343.514 339.3L345.177 336.417H346.957L345.951 339.3L346.957 342.183H345.177Z" fill="#1890FF"/>
<path d="M346.839 340.802C347.668 340.802 348.342 340.128 348.342 339.3C348.342 338.472 347.668 337.802 346.839 337.802L349.666 337.237L350.416 339.52L349.154 341.445L346.839 340.802Z" fill="#1890FF"/>
<path d="M348.26 340.802C349.088 340.802 349.764 340.128 349.764 339.3C349.764 338.472 349.088 337.802 348.26 337.802C347.433 337.802 346.763 338.472 346.763 339.3C346.763 340.128 347.433 340.802 348.26 340.802ZM346.597 336.416H349.929L351.591 339.3L349.929 342.183H346.597L344.936 339.3L346.597 336.416Z" fill="#1A2E35"/>
<path d="M283.275 346.01H287.007C287.979 346.01 288.774 345.215 288.774 344.242C288.774 343.272 287.979 342.477 287.007 342.477H283.275C282.303 342.477 281.508 343.272 281.508 344.242C281.508 345.215 282.303 346.01 283.275 346.01Z" fill="#1A2E35"/>
<path d="M277.313 342.677C278.235 340.723 280.469 339.839 282.303 340.704C284.138 341.569 284.878 343.855 283.956 345.809C283.034 347.764 280.801 348.647 278.966 347.782C277.132 346.917 276.392 344.631 277.313 342.677Z" fill="#1890FF"/>
<path d="M278.344 347.775L279.367 348.258L282.925 340.71L281.902 340.228L278.344 347.775Z" fill="#1A2E35"/>
</g>
</svg>