<svg width="32" height="38" viewBox="0 0 32 38" fill="none" xmlns="http://www.w3.org/2000/svg">
<g id="Group 11">
<g id="Group 4">
<rect id="Rectangle 18" width="2.62551" height="2.58856" transform="matrix(0.87005 0.492963 0 1 5.64575 19.2031)" fill="#231F20"/>
<rect id="Rectangle 19" width="2.62551" height="2.58856" transform="matrix(0.87005 0.492963 0 1 8.50098 20.8208)" fill="#231F20"/>
<rect id="Rectangle 20" width="2.62551" height="2.58856" transform="matrix(0.87005 0.492963 0 1 8.50098 24.0566)" fill="#231F20"/>
<rect id="Rectangle 21" width="2.62551" height="2.58856" transform="matrix(0.87005 0.492963 0 1 5.64575 22.439)" fill="#231F20"/>
</g>
<g id="Group 8">
<g id="Group 7">
<g id="Vector">
<path d="M14.9849 18.3911H17.0152V36.6632H14.9849V18.3911Z" fill="#231F20"/>
<path d="M30.3248 9.55762L31.3399 11.3159L16.1556 20.0825L15.1405 18.3242L30.3248 9.55762Z" fill="#231F20"/>
<path d="M17.1216 18.4755L16.1065 20.2337L0.765869 11.3768L1.78099 9.61857L17.1216 18.4755Z" fill="#231F20"/>
</g>
<path id="Polygon 16" d="M1 10.3399L16 1.6796L31 10.3399V27.6604L16 36.3206L1 27.6604V10.3399Z" stroke="#231F20" stroke-width="2"/>
</g>
<rect id="Rectangle 25" width="5.27863" height="8.93307" transform="matrix(0.866025 -0.5 0 1 21.8877 22.8574)" fill="#231F20"/>
</g>
<path id="Rectangle 26" d="M15.9183 4.9917L24.9727 10.2193L15.9183 15.4469L6.86377 10.2193L15.9183 4.9917Z" fill="#40A9FF"/>
</g>
</svg>
